<?xml version="1.0" encoding="UTF-8"?>
<svg id="Layer_1" data-name="Layer 1" xmlns="http://www.w3.org/2000/svg" viewBox="0 0 500 500">
  <defs>
    <style>
      .cls-1 {
        fill: #f7efe5;
      }
    </style>
  </defs>
  <path class="cls-1" d="M215.92,480.48c12.53-33.47,36.25-55.76,31.43-94.3-3.35-26.75-22.01-49.43-17.55-78.18,1.08-6.99,7.05-14.63,8.48-21.25,1.49-6.99-.65-17.82,2.8-24.07,1.98-3.6,9.11-2.64,12.14-9.17,2.53-5.52-1.06-9.32.43-13.02.82-2.04,4.82-4.43,6.25-7.6,3.98-8.91,6.6-18.61,12.08-26.77,1.61,9.89-12.42,36.9,6.87,36.8,16-.08,12.69-21.6,17.43-30.81,4.52-8.77,19.53-10.99,20.25-14.14-2.27-8.32-9.03-14.3-7.48-23.42.55-3.23-.37-5.99,4.07-5.05,6.05,14.94,13.1,6.85,22.97,6.8,13.3-.06,18.19,12.46,26.4,17.04,9.46,5.27,23.91,3.11,31.67,14.12-10.54,20.99,8.62,26.75,6.38,51.72-1.8,19.9-4.94,15.65-14.28,26.87-4.31,5.17-16.74,19.84-18.31,25.11-11.91,39.52,51.98,29.57,43.34-4.58,2.88-4.19,21.82-2.55,27.28-.08,9.26,5.97,15.82,81.82,17.49,96.22-26.03-9.95-25.24,17.82-33.39,34.04-7.32,14.57-23.93,26.18-23.74,43.71h-182.98Z"/>
  <path class="cls-1" d="M172.48,23.22l-18.17,8.09c-7.19,4.66-24.34,25.83-27.97,33.74-12.77,27.77,12.3,7.6,21.64,8.87,4.66.63,16.1,8.38,20.68,11.42,7.81,5.21,23.31,21.93,30.26,22.35,3.66.22,7.03-2.29,10.83-1.78,3.37.45,6.52,4.03,11.95,4.31,14.41.78,39.52-17.04,57.85-17.96,7.01-.35,12.2,2.88,19.35,1.37s9.75-10.16,17.65-8.7c1.12,1.1-8.79,23.52,10.44,25.01,6.09.47,14.47,2.1,18.08,2.23,4.99.16,9.71-4.74,14.9-4.37-2.25,15.14,6.48,24.93,13.73,36.56-15.57-5.25-36.82-24.05-43.48,2.31l-3.17-.18c-9.15-6.46-30.59-24.4-41.56-15.98-2.62,2.02-3.15,7.6-7.05,8.95-8.77,3.02-20.39-2.64-31.34,2.94-12.53,6.4-12.22,22.11-20.88,31.71.02-9.05,10.3-22.15-3.35-26.48-16.59-5.27-13.81,8.87-16.55,12.3-.84,1.04-5.39.88-7.52,2.68-15.16,12.83-10.63,30.87-26.28,41.23l-.27-18.17-6.56-.18,1.76-23.48c-2.53-8.44-14.08-9.75-17.94-14.08-2.66-2.96-2.1-7.95-6.74-11.54-8.05-6.25-20.62-2-30.34-3.96-9.22-1.86-16.57-12.12-25.56-15.59-19.82-7.66-45.57-1.23-58.42-25.01,6.56-1.45,15.71-1.55,21.48-4.84,5.44-3.11,7.01-11.52,12.1-13.06,6.91-2.08,14.65,1.23,22.99-2.15,5.62-2.27,13.28-13.02,19.11-17.47,19.49-14.88,43.09-30.92,68.35-31.08h.02Z"/>
</svg>